<svg id="Layer_1" data-name="Layer 1" xmlns="http://www.w3.org/2000/svg" viewBox="0 0 1366 1772.42"><defs><style>.cls-1{fill:#f2f2f2;}.cls-2{font-size:50px;font-family:Arial-BoldMT, Arial;font-weight:700;}.cls-3{letter-spacing:-0.04em;}.cls-4,.cls-5,.cls-6,.cls-7{font-size:38.34px;}.cls-12,.cls-13,.cls-4,.cls-5,.cls-6,.cls-7{font-family:ArialMT, Arial;}.cls-4{letter-spacing:-0.06em;}.cls-6{letter-spacing:-0.02em;}.cls-7{letter-spacing:-0.04em;}.cls-11,.cls-8{fill:none;stroke:#1053fc;stroke-miterlimit:10;}.cls-8{stroke-width:8px;}.cls-9{fill:#1053fc;}.cls-10,.cls-13{fill:#fff;}.cls-11{stroke-width:6px;}.cls-12,.cls-13{font-size:40px;}.cls-14{letter-spacing:-0.09em;}</style></defs><rect class="cls-1" y="-0.15" width="1381.11" height="1981.45"/><text class="cls-2" transform="translate(67.98 123.05)">3. Generative<tspan class="cls-3" x="314.06" y="0"> </tspan><tspan x="326.1" y="0">Adversarial Networks (GAN)</tspan></text><text class="cls-4" transform="translate(943.04 397.89)">A</text><text class="cls-5" transform="translate(1112.42 438.07)">X</text><text class="cls-6" transform="translate(1112.42 312.73)">P</text><text class="cls-6" transform="translate(302.35 455.83)">Y</text><text class="cls-5" transform="translate(558.05 390.58)">B</text><text class="cls-5" transform="translate(428.98 340.65)">C</text><text class="cls-5" transform="translate(354.57 390.58)">D</text><text class="cls-5" transform="translate(621.69 448.05)">E</text><text class="cls-5" transform="translate(677.78 330.79)">F</text><text class="cls-5" transform="translate(530.64 293.6)">G</text><text class="cls-5" transform="translate(883.69 303.34)">N</text><text class="cls-5" transform="translate(1024.51 363.12)">H</text><text class="cls-5" transform="translate(224.02 351.05)">S</text><text class="cls-5" transform="translate(796.94 330.79)">I</text><text class="cls-5" transform="translate(833.99 448.05)">J</text><text class="cls-5" transform="translate(472.08 455.83)">K</text><text class="cls-7" transform="translate(312.7 295.28)">L</text><text class="cls-5" transform="translate(721.86 408.65)">M</text><line class="cls-8" x1="686.96" y1="1448.94" x2="686.96" y2="1548.96"/><polyline class="cls-8" points="667.1 1530.32 687.05 1550.27 706.82 1530.51"/><path class="cls-9" d="M705.1,706.07H662.58a25.51,25.51,0,1,1,0-51H705.1a25.51,25.51,0,0,1,0,51Z"/><path class="cls-9" d="M683.84,679.43a4.25,4.25,0,0,1-4.25-4.25v-34a4.25,4.25,0,0,1,8.5,0v34A4.25,4.25,0,0,1,683.84,679.43Z"/><path class="cls-9" d="M632.82,781.5a4.25,4.25,0,0,1-4.25-4.26,12.76,12.76,0,0,0-25.51,0,4.25,4.25,0,1,1-8.5,0,21.26,21.26,0,0,1,42.51,0A4.25,4.25,0,0,1,632.82,781.5Z"/><path class="cls-9" d="M615.82,764.49a4.25,4.25,0,0,1-4.26-4.25V754a23.57,23.57,0,0,1,23.52-23.51h23.25a4.25,4.25,0,1,1,0,8.5H635.08a15,15,0,0,0-15,15v6.28A4.25,4.25,0,0,1,615.82,764.49Z"/><path class="cls-9" d="M758.5,696.44a21.26,21.26,0,0,1-21.26-21.26,4.25,4.25,0,0,1,8.5,0,12.76,12.76,0,1,0,25.51,0,4.25,4.25,0,1,1,8.5,0A21.25,21.25,0,0,1,758.5,696.44Z"/><path class="cls-9" d="M739.24,739H716a4.25,4.25,0,0,1,0-8.5h23.26a15,15,0,0,0,15-15V692.19a4.26,4.26,0,0,1,8.51,0v23.25A23.55,23.55,0,0,1,739.24,739Z"/><path d="M705.7,782.64H662a14.57,14.57,0,0,1-14.57-14.58V729.19A14.57,14.57,0,0,1,662,714.61H705.7a14.58,14.58,0,0,1,14.58,14.58v38.87A14.58,14.58,0,0,1,705.7,782.64Z"/><circle class="cls-10" cx="662.02" cy="680.56" r="11.11"/><circle class="cls-10" cx="704.19" cy="680.56" r="11.11"/><circle cx="704.19" cy="680.56" r="5.18"/><circle cx="662.02" cy="680.56" r="5.18"/><path d="M656,805.54h0A8.55,8.55,0,0,1,647.4,797V766.18a8.55,8.55,0,0,1,17.1,0V797A8.55,8.55,0,0,1,656,805.54Z"/><path d="M711.73,805.54h0a8.55,8.55,0,0,1-8.55-8.55V768.56a8.55,8.55,0,0,1,17.1,0V797A8.55,8.55,0,0,1,711.73,805.54Z"/><rect class="cls-10" x="663.99" y="729.82" width="39.69" height="13.39" rx="1.57"/><path d="M641.63,1282.22a25.51,25.51,0,0,1,25.51-25.5h42.51a25.51,25.51,0,1,1,0,51H667.14A25.51,25.51,0,0,1,641.63,1282.22Z"/><path d="M684.14,1276.85v-34a4.26,4.26,0,0,1,8.51,0v34a4.26,4.26,0,0,1-8.51,0Z"/><path d="M735.16,1378.91a21.26,21.26,0,1,1,42.51,0,4.25,4.25,0,0,1-8.5,0,12.76,12.76,0,1,0-25.51,0,4.25,4.25,0,0,1-8.5,0Z"/><path d="M752.17,1361.9v-6.27a15,15,0,0,0-15-15H713.9a4.25,4.25,0,0,1,0-8.5h23.26a23.55,23.55,0,0,1,23.51,23.51v6.27a4.25,4.25,0,0,1-8.5,0Z"/><path d="M592.48,1276.85a4.25,4.25,0,0,1,8.5,0,12.76,12.76,0,0,0,25.51,0,4.26,4.26,0,0,1,8.51,0,21.26,21.26,0,1,1-42.52,0Z"/><path d="M609.49,1317.11v-23.26a4.25,4.25,0,0,1,8.5,0v23.26a15,15,0,0,0,15,15h23.25a4.25,4.25,0,0,1,0,8.5H633A23.55,23.55,0,0,1,609.49,1317.11Z"/><path class="cls-9" d="M652,1369.73v-38.87a14.58,14.58,0,0,1,14.58-14.58h43.73a14.58,14.58,0,0,1,14.58,14.58v38.87a14.57,14.57,0,0,1-14.58,14.57H666.53A14.57,14.57,0,0,1,652,1369.73Z"/><circle class="cls-10" cx="710.21" cy="1282.22" r="11.11"/><circle class="cls-10" cx="668.05" cy="1282.22" r="11.11"/><circle class="cls-9" cx="668.05" cy="1282.22" r="5.18"/><circle class="cls-9" cx="710.21" cy="1282.22" r="5.18"/><path class="cls-9" d="M716.29,1407.21h0a8.55,8.55,0,0,0,8.55-8.55v-30.82a8.55,8.55,0,0,0-17.1,0v30.82A8.55,8.55,0,0,0,716.29,1407.21Z"/><path class="cls-9" d="M660.5,1407.21h0a8.55,8.55,0,0,0,8.55-8.55v-28.44a8.55,8.55,0,0,0-17.1,0v28.44A8.55,8.55,0,0,0,660.5,1407.21Z"/><rect class="cls-10" x="668.55" y="1331.48" width="39.69" height="13.39" rx="1.57" transform="translate(1376.79 2676.35) rotate(-180)"/><line class="cls-11" x1="683" y1="503.46" x2="683" y2="611"/><rect class="cls-10" x="290.51" y="879.71" width="230" height="153.67" rx="25.27"/><text class="cls-12" transform="translate(340.27 972.05)">Xrtocq?</text><rect class="cls-10" x="571.96" y="879.71" width="230" height="153.67" rx="25.27"/><text class="cls-12" transform="translate(637.07 972.05)">Broxi?</text><text class="cls-2" transform="translate(624.19 1634.72)">Broxi</text><rect class="cls-10" x="845.49" y="879.71" width="230" height="153.67" rx="25.27"/><text class="cls-12" transform="translate(894.73 972.05)"><tspan class="cls-3">V</tspan><tspan x="25.2" y="0">rrtom?</tspan></text><polygon class="cls-10" points="475.72 879.71 525.31 834.38 418.85 879.71 475.72 879.71"/><polygon class="cls-10" points="903.62 879.71 854.03 834.38 960.49 879.71 903.62 879.71"/><polyline class="cls-10" points="660.26 879.71 683.84 834.38 704.19 879.71"/><polyline class="cls-9" points="709.19 1157.06 685.61 1202.38 665.26 1157.06"/><rect class="cls-9" x="308.19" y="1057.04" width="195.02" height="101.32" rx="25.27"/><text class="cls-13" transform="translate(354.57 1120.66)">Nope.</text><polygon class="cls-9" points="455.23 1150.02 504.82 1195.35 398.36 1150.02 455.23 1150.02"/><rect class="cls-9" x="862.17" y="1057.04" width="195.02" height="101.32" rx="25.27"/><text class="cls-13" transform="translate(908.55 1120.66)">Nope.</text><rect class="cls-9" x="589.57" y="1057.04" width="195.02" height="101.32" rx="25.27"/><text class="cls-13" transform="translate(654.03 1120.66)"><tspan class="cls-14">Y</tspan><tspan x="23.01" y="0">es.</tspan></text><polygon class="cls-9" points="911.76 1158.36 862.17 1203.69 968.63 1158.36 911.76 1158.36"/><polyline class="cls-8" points="663.05 591.05 683 611 702.76 591.24"/><line class="cls-11" x1="951.55" y1="503.46" x2="738.89" y2="607.46"/><polyline class="cls-8" points="746.39 582.18 737.24 608.86 763.68 617.93"/><line class="cls-11" x1="413.64" y1="503.46" x2="626.3" y2="607.46"/><polyline class="cls-8" points="618.8 582.18 627.95 608.86 601.51 617.93"/></svg>