<svg id="Layer_1" data-name="Layer 1" xmlns="http://www.w3.org/2000/svg" viewBox="0 0 1366 1918.54"><defs><style>.cls-1{fill:#f2f2f2;}.cls-2{font-size:50px;}.cls-2,.cls-5,.cls-7{font-family:Arial-BoldMT, Arial;font-weight:700;}.cls-3,.cls-4,.cls-7{font-size:40px;}.cls-3,.cls-4,.cls-6,.cls-8,.cls-9{font-family:ArialMT, Arial;}.cls-4,.cls-5{fill:#1053fc;}.cls-5{font-size:45px;}.cls-6{font-size:20px;}.cls-8{font-weight:400;}.cls-9{font-size:30px;}.cls-10,.cls-11,.cls-12{fill:none;stroke-miterlimit:10;}.cls-10,.cls-11{stroke:#1053fc;}.cls-10{stroke-width:8px;}.cls-11{stroke-width:3px;}.cls-12{stroke:#000;}</style></defs><rect class="cls-1" y="-0.15" width="1381.11" height="1981.45"/><text class="cls-2" transform="translate(67.98 123.05)">2. Markov Chain</text><text class="cls-3" transform="translate(138.68 266.61)">Sabine</text><text class="cls-4" transform="translate(138.68 330.51)"><tspan xml:space="preserve">Sa   +   bi   +   ne</tspan></text><text class="cls-3" transform="translate(138.68 441.91)">Sabio</text><text class="cls-4" transform="translate(138.27 505.27)"><tspan xml:space="preserve">Sa   +   bi   +   o</tspan></text><text class="cls-3" transform="translate(138.68 616.67)">Susanne</text><text class="cls-4" transform="translate(138.68 687.81)"><tspan xml:space="preserve">Su   +   sa   +   nn   +   e</tspan></text><text class="cls-5" transform="translate(138.27 874.36)">sa</text><text class="cls-5" transform="translate(403.26 874.36)">bi</text><text class="cls-5" transform="translate(403.26 1049.12)">bi</text><text class="cls-5" transform="translate(688.5 1049.12)">o</text><text class="cls-5" transform="translate(688.5 874.36)">ne</text><text class="cls-5" transform="translate(138.27 1049.12)">sa</text><text class="cls-5" transform="translate(138.27 1231.66)">su</text><text class="cls-5" transform="translate(403.26 1231.66)">sa</text><text class="cls-5" transform="translate(688.5 1231.66)">nn</text><text class="cls-5" transform="translate(962 1231.66)">e</text><text class="cls-3" transform="translate(938.41 443.19)">Probability of one<tspan x="27.8" y="48">state following</tspan><tspan x="6.66" y="96">the previous one</tspan></text><text class="cls-6" transform="translate(142.45 363.54)">state</text><text class="cls-7" transform="translate(1002.46 924.89)">Example: <tspan class="cls-8"><tspan x="-77.83" y="48">probability of states</tspan><tspan x="-28.9" y="96">following “sa”:</tspan><tspan x="27.77" y="144">bi: 66%</tspan><tspan x="25.56" y="192">ra: 33%</tspan></tspan></text><text class="cls-9" transform="translate(140.86 924.89)">33%</text><text class="cls-9" transform="translate(401.08 924.89)">33%</text><text class="cls-9" transform="translate(689.03 924.89)">50%</text><text class="cls-9" transform="translate(140.86 1099.33)">33%</text><text class="cls-9" transform="translate(401.08 1099.33)">33%</text><text class="cls-9" transform="translate(689.03 1099.33)">50%</text><text class="cls-9" transform="translate(140.86 1291.68)">33%</text><text class="cls-9" transform="translate(392.74 1291.68)">100%</text><text class="cls-9" transform="translate(689.03 1291.68)">33%</text><text class="cls-9" transform="translate(954.22 1291.68)">100%</text><line class="cls-10" x1="694.42" y1="480.15" x2="828.18" y2="480.15"/><polyline class="cls-10" points="809.55 500.01 829.5 480.06 809.74 460.29"/><line class="cls-11" x1="226.48" y1="915.57" x2="370.16" y2="915.57"/><polyline class="cls-11" points="357.47 929.09 371.06 915.5 357.6 902.05"/><line class="cls-11" x1="226.48" y1="1089.01" x2="370.16" y2="1089.01"/><polyline class="cls-11" points="357.47 1102.53 371.06 1088.95 357.6 1075.49"/><line class="cls-11" x1="226.48" y1="1280.36" x2="370.16" y2="1280.36"/><polyline class="cls-11" points="357.47 1293.88 371.06 1280.3 357.6 1266.84"/><line class="cls-11" x1="496.73" y1="915.57" x2="640.41" y2="915.57"/><polyline class="cls-11" points="627.73 929.09 641.31 915.5 627.85 902.05"/><line class="cls-11" x1="496.73" y1="1089.01" x2="640.41" y2="1089.01"/><polyline class="cls-11" points="627.73 1102.53 641.31 1088.95 627.85 1075.49"/><line class="cls-11" x1="496.73" y1="1280.36" x2="640.41" y2="1280.36"/><polyline class="cls-11" points="627.73 1293.88 641.31 1280.3 627.85 1266.84"/><line class="cls-11" x1="779.01" y1="1280.36" x2="922.69" y2="1280.36"/><polyline class="cls-11" points="910 1293.88 923.58 1280.3 910.13 1266.84"/><line class="cls-10" x1="601.09" y1="1393.45" x2="601.09" y2="1493.46"/><polyline class="cls-10" points="581.23 1474.83 601.18 1494.78 620.95 1475.01"/><line class="cls-10" x1="133.23" y1="1393.45" x2="1068.94" y2="1393.45"/><text class="cls-5" transform="translate(529.95 1655.82)">Sanne</text><text class="cls-5" transform="translate(497.44 1728.52)">Susabine</text><text class="cls-5" transform="translate(509.95 1806.01)">Susabio</text><text class="cls-4" transform="translate(558.55 1580.07)">e.g.:</text><polyline class="cls-12" points="132.24 336.54 132.24 343.5 197.83 343.5 197.83 336.54"/></svg>