<svg id="Layer_1" data-name="Layer 1" xmlns="http://www.w3.org/2000/svg" viewBox="0 0 1366 1641"><defs><style>.cls-1{fill:#f2f2f2;}.cls-2{font-size:50px;}.cls-2,.cls-5{font-family:Arial-BoldMT, Arial;font-weight:700;}.cls-3,.cls-4{font-size:40px;font-family:ArialMT, Arial;}.cls-4,.cls-5{fill:#1053fc;}.cls-5{font-size:45px;}.cls-6{letter-spacing:-0.02em;}.cls-7{letter-spacing:-0.01em;}.cls-8{fill:none;stroke:#1053fc;stroke-miterlimit:10;stroke-width:8px;}</style></defs><rect class="cls-1" y="-0.15" width="1381.11" height="1661.8"/><text class="cls-2" transform="translate(67.98 123.05)">1. Syllable Randomizer</text><text class="cls-3" transform="translate(206.32 266.61)">Maxine</text><text class="cls-4" transform="translate(175.82 862.98)">Ma</text><text class="cls-5" transform="translate(571.02 1378.38)">Matherina</text><text class="cls-4" transform="translate(638.37 1303.22)">e.g.:</text><text class="cls-5" transform="translate(583.92 1457.5)"><tspan class="cls-6">W</tspan><tspan x="41.66" y="0">yxirine</tspan></text><text class="cls-5" transform="translate(561.03 1536.62)">Canothena</text><text class="cls-4" transform="translate(175.82 918.79)">Ca</text><text class="cls-4" transform="translate(175.82 974.6)"><tspan class="cls-7">W</tspan><tspan x="37.4" y="0">y</tspan></text><text class="cls-4" transform="translate(655.74 919.12)">the</text><text class="cls-4" transform="translate(656.07 863.42)">xi</text><text class="cls-4" transform="translate(656.31 974.6)">ri</text><text class="cls-4" transform="translate(1112.42 863.42)">ne</text><text class="cls-4" transform="translate(1115.06 918.79)">na</text><text class="cls-4" transform="translate(655.1 1032.97)">no</text><text class="cls-3" transform="translate(172.98 473.39)"><tspan xml:space="preserve">Ma   xi   ne</tspan></text><line class="cls-8" x1="270.79" y1="303.83" x2="270.79" y2="403.85"/><polyline class="cls-8" points="250.94 385.21 270.88 405.16 290.65 385.4"/><text class="cls-3" transform="translate(586.6 266.61)">Catherine</text><text class="cls-3" transform="translate(532.94 473.39)"><tspan xml:space="preserve">Ca   the   ri   ne</tspan></text><line class="cls-8" x1="676.41" y1="303.83" x2="676.41" y2="403.85"/><polyline class="cls-8" points="656.55 385.21 676.5 405.16 696.26 385.4"/><text class="cls-3" transform="translate(1006.42 266.61)"><tspan class="cls-7">W</tspan><tspan x="37.4" y="0">ynona</tspan></text><text class="cls-3" transform="translate(973.08 473.39)"><tspan class="cls-7">W</tspan><tspan x="37.4" y="0" xml:space="preserve">y   no   na</tspan></text><line class="cls-8" x1="1079.61" y1="303.83" x2="1079.61" y2="403.85"/><polyline class="cls-8" points="1059.75 385.21 1079.7 405.16 1099.46 385.4"/><line class="cls-8" x1="675.56" y1="532.09" x2="675.56" y2="632.11"/><polyline class="cls-8" points="655.7 613.48 675.65 633.42 695.42 613.66"/><line class="cls-8" x1="138.48" y1="532.09" x2="1220.65" y2="532.09"/><line class="cls-8" x1="675.56" y1="1128.99" x2="675.56" y2="1229"/><polyline class="cls-8" points="655.7 1210.37 675.65 1230.32 695.42 1210.55"/><line class="cls-8" x1="138.48" y1="1128.99" x2="1220.65" y2="1128.99"/><text class="cls-3" transform="translate(137.46 720.06)">random <tspan x="-25.57" y="48">1st syllable</tspan></text><text class="cls-3" transform="translate(1070.48 720.06)">random <tspan x="-30.01" y="48">last syllable</tspan></text><line class="cls-8" x1="388.56" y1="732.13" x2="445.15" y2="732.13"/><line class="cls-8" x1="416.85" y1="760.42" x2="416.85" y2="703.83"/><line class="cls-8" x1="905.08" y1="732.13" x2="961.68" y2="732.13"/><line class="cls-8" x1="933.38" y1="760.42" x2="933.38" y2="703.83"/><path d="M536.53,720.06V699.32h3.17v3.15a8.36,8.36,0,0,1,2.23-2.91,3.93,3.93,0,0,1,2.26-.71A6.82,6.82,0,0,1,547.8,700l-1.21,3.26a5,5,0,0,0-2.58-.76,3.39,3.39,0,0,0-2.07.69,3.81,3.81,0,0,0-1.31,1.92,13.73,13.73,0,0,0-.58,4.1v10.86Z"/><path d="M563.43,717.51a13.35,13.35,0,0,1-3.76,2.34,11,11,0,0,1-3.88.68,7.49,7.49,0,0,1-5.25-1.67,5.48,5.48,0,0,1-1.84-4.26,5.71,5.71,0,0,1,.69-2.79,5.82,5.82,0,0,1,1.82-2,8.46,8.46,0,0,1,2.53-1.15,25.48,25.48,0,0,1,3.13-.53,32.15,32.15,0,0,0,6.26-1.21c0-.48,0-.79,0-.92a3.91,3.91,0,0,0-1-3,5.93,5.93,0,0,0-4-1.19,6.21,6.21,0,0,0-3.66.87,5.33,5.33,0,0,0-1.75,3.08l-3.43-.47a8.4,8.4,0,0,1,1.54-3.56,6.67,6.67,0,0,1,3.11-2.09,13.76,13.76,0,0,1,4.7-.74,12.41,12.41,0,0,1,4.32.63,5.67,5.67,0,0,1,2.44,1.57,5.44,5.44,0,0,1,1.09,2.39,19.34,19.34,0,0,1,.18,3.24v4.69a50,50,0,0,0,.22,6.2,7.82,7.82,0,0,0,.89,2.49h-3.67A7.46,7.46,0,0,1,563.43,717.51Zm-.3-7.86a25.49,25.49,0,0,1-5.74,1.33,13.31,13.31,0,0,0-3.06.7,3.11,3.11,0,0,0-1.39,1.15,3.09,3.09,0,0,0,.58,4,4.54,4.54,0,0,0,3.11.94,7.26,7.26,0,0,0,3.61-.89,5.46,5.46,0,0,0,2.33-2.43,8.51,8.51,0,0,0,.56-3.52Z"/><path d="M572.14,720.06V699.32h3.16v2.95a7.47,7.47,0,0,1,6.6-3.42,8.67,8.67,0,0,1,3.45.68,5.48,5.48,0,0,1,2.36,1.76,6.85,6.85,0,0,1,1.09,2.6,20.31,20.31,0,0,1,.19,3.42v12.75h-3.51V707.45a9.58,9.58,0,0,0-.41-3.22,3.43,3.43,0,0,0-1.46-1.7,4.63,4.63,0,0,0-2.45-.63,5.67,5.67,0,0,0-3.87,1.43q-1.63,1.42-1.64,5.41v11.32Z"/><path d="M607.84,720.06v-2.61a6.46,6.46,0,0,1-5.8,3.08,8.15,8.15,0,0,1-4.56-1.36,9,9,0,0,1-3.22-3.82,13.27,13.27,0,0,1-1.14-5.64,14.7,14.7,0,0,1,1-5.63,8.17,8.17,0,0,1,3.11-3.88,8.28,8.28,0,0,1,4.62-1.35,7,7,0,0,1,3.34.79,7.05,7.05,0,0,1,2.39,2.06V691.43h3.49v28.63Zm-11.11-10.35c0,2.66.56,4.64,1.68,6a5.07,5.07,0,0,0,4,2,5,5,0,0,0,3.92-1.88q1.61-1.89,1.61-5.75c0-2.84-.55-4.93-1.64-6.25a5,5,0,0,0-4-2,4.87,4.87,0,0,0-3.92,1.92C597.25,705,596.73,707,596.73,709.71Z"/><path d="M615.32,709.69q0-5.76,3.21-8.53a9.61,9.61,0,0,1,6.52-2.31,9.3,9.3,0,0,1,7,2.81,10.65,10.65,0,0,1,2.72,7.74,13.6,13.6,0,0,1-1.21,6.3,8.44,8.44,0,0,1-3.49,3.56,10.14,10.14,0,0,1-5,1.27,9.33,9.33,0,0,1-7-2.79Q615.33,715,615.32,709.69Zm3.62,0c0,2.66.57,4.65,1.73,6a5.58,5.58,0,0,0,4.38,2,5.52,5.52,0,0,0,4.35-2q1.74-2,1.74-6.07,0-3.86-1.75-5.83a5.52,5.52,0,0,0-4.34-2,5.58,5.58,0,0,0-4.38,2C619.51,705.05,618.94,707,618.94,709.69Z"/><path d="M638.88,720.06V699.32H642v2.91a7.46,7.46,0,0,1,2.6-2.45,7.28,7.28,0,0,1,3.69-.93,6.79,6.79,0,0,1,3.78,1,5.12,5.12,0,0,1,2.08,2.68,7.44,7.44,0,0,1,6.41-3.64,6.3,6.3,0,0,1,4.74,1.71q1.66,1.71,1.66,5.27v14.23h-3.49V707a9.52,9.52,0,0,0-.35-3,2.85,2.85,0,0,0-1.24-1.49,3.83,3.83,0,0,0-2.11-.57,5,5,0,0,0-3.63,1.45c-1,1-1.44,2.53-1.44,4.66v12H651.2V706.59a6,6,0,0,0-.86-3.52,3.25,3.25,0,0,0-2.81-1.17,5.08,5.08,0,0,0-2.74.78A4.43,4.43,0,0,0,643,705a12.73,12.73,0,0,0-.57,4.33v10.76Z"/><path d="M683.31,720.06V699.32h3.16v2.95a7.47,7.47,0,0,1,6.61-3.42,8.62,8.62,0,0,1,3.44.68,5.42,5.42,0,0,1,2.36,1.76,6.85,6.85,0,0,1,1.09,2.6,20,20,0,0,1,.2,3.42v12.75h-3.52V707.45a9.58,9.58,0,0,0-.41-3.22,3.41,3.41,0,0,0-1.45-1.7,4.69,4.69,0,0,0-2.46-.63,5.68,5.68,0,0,0-3.87,1.43q-1.63,1.42-1.63,5.41v11.32Z"/><path d="M719.15,720.06v-3a7.59,7.59,0,0,1-6.58,3.51,8.35,8.35,0,0,1-3.43-.7,5.62,5.62,0,0,1-2.36-1.77,6.58,6.58,0,0,1-1.09-2.61,18.22,18.22,0,0,1-.21-3.28V699.32H709v11.51a20.71,20.71,0,0,0,.22,3.71,3.62,3.62,0,0,0,1.41,2.17,4.32,4.32,0,0,0,2.65.8,5.78,5.78,0,0,0,3-.82,4.49,4.49,0,0,0,2-2.2,10.94,10.94,0,0,0,.58-4.06V699.32h3.51v20.74Z"/><path d="M727.8,720.06V699.32H731v2.91a7.43,7.43,0,0,1,2.59-2.45,7.31,7.31,0,0,1,3.7-.93,6.84,6.84,0,0,1,3.78,1,5.17,5.17,0,0,1,2.08,2.68,7.43,7.43,0,0,1,6.4-3.64,6.32,6.32,0,0,1,4.75,1.71c1.1,1.14,1.66,2.9,1.66,5.27v14.23h-3.5V707a9.58,9.58,0,0,0-.34-3,2.9,2.9,0,0,0-1.24-1.49,3.85,3.85,0,0,0-2.11-.57,4.93,4.93,0,0,0-3.63,1.45c-1,1-1.45,2.53-1.45,4.66v12h-3.51V706.59a6,6,0,0,0-.86-3.52,3.26,3.26,0,0,0-2.81-1.17,5.11,5.11,0,0,0-2.75.78,4.43,4.43,0,0,0-1.83,2.29,13,13,0,0,0-.56,4.33v10.76Z"/><path d="M764.37,720.06H761.1V691.43h3.52v10.22a6.93,6.93,0,0,1,5.68-2.8,8.79,8.79,0,0,1,3.63.77,7.57,7.57,0,0,1,2.81,2.17,10.71,10.71,0,0,1,1.73,3.37,14.12,14.12,0,0,1,.62,4.22q0,5.32-2.63,8.24a8.26,8.26,0,0,1-6.33,2.91,6.6,6.6,0,0,1-5.76-3.06Zm0-10.52a10.77,10.77,0,0,0,1,5.39,5,5,0,0,0,8.48.71q1.68-2,1.68-6t-1.61-6a4.93,4.93,0,0,0-3.9-1.94,5,5,0,0,0-4,2A8.77,8.77,0,0,0,764.33,709.54Z"/><path d="M797.57,713.38l3.63.45a8.8,8.8,0,0,1-3.18,4.94,10.79,10.79,0,0,1-13.16-1q-2.65-2.81-2.66-7.86,0-5.24,2.69-8.13a9.15,9.15,0,0,1,7-2.89,8.89,8.89,0,0,1,6.8,2.83q2.64,2.84,2.64,8c0,.21,0,.52,0,.94H785.83a8,8,0,0,0,1.93,5.24,5.77,5.77,0,0,0,4.34,1.81,5.41,5.41,0,0,0,3.3-1A6.81,6.81,0,0,0,797.57,713.38ZM786,707.7h11.58a7.1,7.1,0,0,0-1.33-3.93,5.4,5.4,0,0,0-4.36-2,5.59,5.59,0,0,0-4.07,1.62A6.41,6.41,0,0,0,786,707.7Z"/><path d="M805.58,720.06V699.32h3.16v3.15a8.36,8.36,0,0,1,2.24-2.91,3.88,3.88,0,0,1,2.25-.71,6.85,6.85,0,0,1,3.62,1.14l-1.22,3.26a5,5,0,0,0-2.57-.76,3.35,3.35,0,0,0-2.07.69,3.69,3.69,0,0,0-1.31,1.92,13.72,13.72,0,0,0-.59,4.1v10.86Z"/><path d="M513,757.69c0-3.84,1.06-6.68,3.2-8.53a9.63,9.63,0,0,1,6.52-2.31,9.31,9.31,0,0,1,7,2.81c1.81,1.86,2.71,4.45,2.71,7.74a13.74,13.74,0,0,1-1.2,6.3,8.46,8.46,0,0,1-3.5,3.56,10.14,10.14,0,0,1-5,1.27,9.33,9.33,0,0,1-7-2.79Q513,763,513,757.69Zm3.61,0q0,4,1.74,6a5.79,5.79,0,0,0,8.73,0q1.74-2,1.74-6.07a8.59,8.59,0,0,0-1.75-5.83,5.78,5.78,0,0,0-8.72,0C517.23,753.05,516.65,755,516.65,757.69Z"/><path d="M537.43,768.06v-18h-3.1v-2.74h3.1v-2.21a9.87,9.87,0,0,1,.37-3.1,4.55,4.55,0,0,1,1.79-2.22,6.49,6.49,0,0,1,3.58-.85,17.66,17.66,0,0,1,3.29.35l-.53,3.07a11.8,11.8,0,0,0-2.07-.19,3.07,3.07,0,0,0-2.27.68,3.73,3.73,0,0,0-.66,2.56v1.91h4v2.74h-4v18Z"/><path d="M558.82,768.06V747.32H562v2.91a7.46,7.46,0,0,1,2.6-2.45,7.28,7.28,0,0,1,3.69-.93,6.79,6.79,0,0,1,3.78,1,5.12,5.12,0,0,1,2.08,2.68,7.44,7.44,0,0,1,6.41-3.64,6.3,6.3,0,0,1,4.74,1.71q1.66,1.71,1.66,5.27v14.23h-3.49V755a9.89,9.89,0,0,0-.34-3,3,3,0,0,0-1.24-1.49,3.88,3.88,0,0,0-2.11-.57,5,5,0,0,0-3.64,1.45c-1,1-1.44,2.53-1.44,4.66v12h-3.52V754.59a5.87,5.87,0,0,0-.86-3.52,3.25,3.25,0,0,0-2.81-1.17,5.1,5.1,0,0,0-2.74.78A4.43,4.43,0,0,0,562.9,753a12.73,12.73,0,0,0-.57,4.33v10.76Z"/><path d="M592.16,743.47v-4h3.51v4Zm0,24.59V747.32h3.51v20.74Z"/><path d="M614.48,768.06v-2.61a6.46,6.46,0,0,1-5.8,3.08,8.15,8.15,0,0,1-4.56-1.36,9,9,0,0,1-3.22-3.82,13.27,13.27,0,0,1-1.14-5.64,14.7,14.7,0,0,1,1-5.63,8.17,8.17,0,0,1,3.11-3.88,8.29,8.29,0,0,1,4.63-1.35,7,7,0,0,1,3.34.79,7.11,7.11,0,0,1,2.38,2.06V739.43h3.49v28.63Zm-11.11-10.35c0,2.66.56,4.64,1.68,6a5.07,5.07,0,0,0,4,2,5,5,0,0,0,3.92-1.88q1.61-1.89,1.61-5.75c0-2.84-.55-4.93-1.64-6.25a5,5,0,0,0-4-2,4.87,4.87,0,0,0-3.92,1.92C603.89,753,603.37,755,603.37,757.71Z"/><path d="M636.73,768.06v-2.61a6.47,6.47,0,0,1-5.8,3.08,8.11,8.11,0,0,1-4.56-1.36,9.12,9.12,0,0,1-3.23-3.82,13.27,13.27,0,0,1-1.14-5.64,14.7,14.7,0,0,1,1-5.63,8.15,8.15,0,0,1,3.1-3.88,8.31,8.31,0,0,1,4.63-1.35,6.9,6.9,0,0,1,5.72,2.85V739.43H640v28.63Zm-11.11-10.35c0,2.66.55,4.64,1.67,6a5.09,5.09,0,0,0,4,2,5,5,0,0,0,3.92-1.88q1.61-1.89,1.61-5.75c0-2.84-.55-4.93-1.64-6.25a5.06,5.06,0,0,0-4-2,4.86,4.86,0,0,0-3.91,1.92C626.14,753,625.62,755,625.62,757.71Z"/><path d="M645.44,768.06V739.43H649v28.63Z"/><path d="M668.6,761.38l3.64.45a8.87,8.87,0,0,1-3.19,4.94,10.78,10.78,0,0,1-13.15-1q-2.67-2.81-2.67-7.86,0-5.24,2.7-8.13a9.14,9.14,0,0,1,7-2.89,8.91,8.91,0,0,1,6.8,2.83q2.63,2.84,2.63,8c0,.21,0,.52,0,.94H656.87a8,8,0,0,0,1.93,5.24,5.74,5.74,0,0,0,4.33,1.81,5.47,5.47,0,0,0,3.31-1A6.73,6.73,0,0,0,668.6,761.38Zm-11.54-5.68h11.58a7,7,0,0,0-1.33-3.93,5.39,5.39,0,0,0-4.35-2,5.57,5.57,0,0,0-4.07,1.62A6.46,6.46,0,0,0,657.06,755.7Z"/><path d="M686.36,761.87l3.47-.54a4.88,4.88,0,0,0,1.63,3.2,5.72,5.72,0,0,0,3.75,1.11,5.53,5.53,0,0,0,3.59-1,3,3,0,0,0,1.17-2.32,2.14,2.14,0,0,0-1-1.87,15.28,15.28,0,0,0-3.6-1.2,33.51,33.51,0,0,1-5.36-1.68,5.31,5.31,0,0,1-2.4-7.33,5.62,5.62,0,0,1,1.73-2,7,7,0,0,1,2.23-1,10.69,10.69,0,0,1,3-.42,12,12,0,0,1,4.29.71,5.73,5.73,0,0,1,2.72,1.9,7.36,7.36,0,0,1,1.21,3.21l-3.43.47a3.77,3.77,0,0,0-1.36-2.5,5,5,0,0,0-3.18-.9,5.76,5.76,0,0,0-3.45.8,2.35,2.35,0,0,0-1,1.88,1.9,1.9,0,0,0,.43,1.23,3.15,3.15,0,0,0,1.35.94c.35.13,1.39.43,3.1.9a41.14,41.14,0,0,1,5.21,1.63,5.23,5.23,0,0,1,2.31,1.84,5.16,5.16,0,0,1,.84,3,5.91,5.91,0,0,1-1,3.31,6.53,6.53,0,0,1-3,2.4,10.73,10.73,0,0,1-4.38.85,9.74,9.74,0,0,1-6.16-1.68A7.82,7.82,0,0,1,686.36,761.87Z"/><path d="M707.61,776.05l-.39-3.3a7.7,7.7,0,0,0,2,.31,3.85,3.85,0,0,0,1.87-.39,3.18,3.18,0,0,0,1.16-1.09,18.36,18.36,0,0,0,1.07-2.62c.06-.19.17-.48.31-.86l-7.87-20.78h3.79l4.32,12q.84,2.29,1.5,4.81a46.28,46.28,0,0,1,1.45-4.73l4.43-12.09h3.52l-7.9,21.1a40.6,40.6,0,0,1-2,4.7,6.87,6.87,0,0,1-2.15,2.55,5.06,5.06,0,0,1-2.89.81A6.93,6.93,0,0,1,707.61,776.05Z"/><path d="M727.69,768.06V739.43h3.51v28.63Z"/><path d="M736.57,768.06V739.43h3.52v28.63Z"/><path d="M759.07,765.51a13.21,13.21,0,0,1-3.76,2.34,10.93,10.93,0,0,1-3.87.68,7.53,7.53,0,0,1-5.26-1.67,5.5,5.5,0,0,1-1.83-4.26,5.75,5.75,0,0,1,2.51-4.81,8.4,8.4,0,0,1,2.52-1.15,25.83,25.83,0,0,1,3.13-.53,32.13,32.13,0,0,0,6.27-1.21c0-.48,0-.79,0-.92a3.88,3.88,0,0,0-1-3,5.9,5.9,0,0,0-4-1.19,6.17,6.17,0,0,0-3.66.87,5.33,5.33,0,0,0-1.75,3.08l-3.44-.47a8.52,8.52,0,0,1,1.54-3.56,6.72,6.72,0,0,1,3.11-2.09,13.78,13.78,0,0,1,4.71-.74,12.31,12.31,0,0,1,4.31.63,4.94,4.94,0,0,1,3.54,4,19.66,19.66,0,0,1,.17,3.24v4.69a49.16,49.16,0,0,0,.23,6.2,7.59,7.59,0,0,0,.89,2.49h-3.67A7.46,7.46,0,0,1,759.07,765.51Zm-.29-7.86A25.62,25.62,0,0,1,753,759a13.42,13.42,0,0,0-3.07.7,3.17,3.17,0,0,0-1.39,1.15,3,3,0,0,0-.48,1.67,3,3,0,0,0,1.06,2.34,4.56,4.56,0,0,0,3.12.94,7.29,7.29,0,0,0,3.61-.89,5.44,5.44,0,0,0,2.32-2.43,8.48,8.48,0,0,0,.57-3.52Z"/><path d="M771,768.06h-3.27V739.43h3.52v10.22a6.93,6.93,0,0,1,5.68-2.8,8.79,8.79,0,0,1,3.63.77,7.57,7.57,0,0,1,2.81,2.17,10.71,10.71,0,0,1,1.73,3.37,14.12,14.12,0,0,1,.62,4.22q0,5.32-2.63,8.24a8.26,8.26,0,0,1-6.33,2.91,6.6,6.6,0,0,1-5.76-3.06Zm0-10.52a10.77,10.77,0,0,0,1,5.39,5,5,0,0,0,8.48.71q1.68-2,1.68-6t-1.61-6a4.93,4.93,0,0,0-3.9-1.94,5,5,0,0,0-4,2A8.77,8.77,0,0,0,771,757.54Z"/><path d="M790,768.06V739.43h3.52v28.63Z"/><path d="M813.12,761.38l3.63.45a8.87,8.87,0,0,1-3.19,4.94,10.78,10.78,0,0,1-13.15-1q-2.67-2.81-2.67-7.86,0-5.24,2.7-8.13a9.15,9.15,0,0,1,7-2.89,8.89,8.89,0,0,1,6.8,2.83q2.64,2.84,2.64,8c0,.21,0,.52,0,.94H801.38a8,8,0,0,0,1.93,5.24,5.75,5.75,0,0,0,4.34,1.81,5.41,5.41,0,0,0,3.3-1A6.81,6.81,0,0,0,813.12,761.38Zm-11.55-5.68h11.58a7.1,7.1,0,0,0-1.32-3.93,5.41,5.41,0,0,0-4.36-2,5.59,5.59,0,0,0-4.07,1.62A6.46,6.46,0,0,0,801.57,755.7Z"/><path d="M819.76,761.87l3.47-.54a4.88,4.88,0,0,0,1.63,3.2,5.69,5.69,0,0,0,3.74,1.11,5.55,5.55,0,0,0,3.6-1,3,3,0,0,0,1.17-2.32,2.13,2.13,0,0,0-1-1.87,15.14,15.14,0,0,0-3.59-1.2,33.51,33.51,0,0,1-5.36-1.68,5.31,5.31,0,0,1-2.4-7.33,5.62,5.62,0,0,1,1.73-2,7,7,0,0,1,2.23-1,10.64,10.64,0,0,1,3-.42,12,12,0,0,1,4.29.71,5.78,5.78,0,0,1,2.72,1.9,7.36,7.36,0,0,1,1.21,3.21l-3.44.47a3.76,3.76,0,0,0-1.35-2.5,5,5,0,0,0-3.18-.9,5.74,5.74,0,0,0-3.45.8,2.32,2.32,0,0,0-1,1.88,1.9,1.9,0,0,0,.43,1.23,3.15,3.15,0,0,0,1.35.94c.35.13,1.38.43,3.1.9a41.7,41.7,0,0,1,5.21,1.63,5.23,5.23,0,0,1,2.31,1.84,5.16,5.16,0,0,1,.84,3,5.91,5.91,0,0,1-1,3.31,6.58,6.58,0,0,1-3,2.4,10.73,10.73,0,0,1-4.38.85,9.74,9.74,0,0,1-6.16-1.68A7.82,7.82,0,0,1,819.76,761.87Z"/></svg>